<?xml version="1.0" standalone="no"?>
<!DOCTYPE svg PUBLIC "-//W3C//DTD SVG 20010904//EN"
 "http://www.w3.org/TR/2001/REC-SVG-20010904/DTD/svg10.dtd">
<svg version="1.0" xmlns="http://www.w3.org/2000/svg"
 width="500.000000pt" height="500.000000pt" viewBox="0 0 500.000000 500.000000"
 preserveAspectRatio="xMidYMid meet">

<g transform="translate(0.000000,500.000000) scale(0.100000,-0.100000)"
fill="#880000" stroke="none">
<path d="M1838 4130 c-54 -16 -96 -50 -119 -98 l-24 -47 -3 -1074 c-1 -591 1
-1078 5 -1082 7 -7 150 79 216 131 l27 22 0 928 c0 617 3 931 10 935 29 18
265 -54 428 -131 284 -134 532 -341 628 -524 25 -48 29 -66 29 -140 0 -75 -4
-92 -30 -144 -16 -32 -61 -92 -99 -133 -38 -40 -66 -76 -64 -79 3 -3 82 45
174 105 93 60 223 144 289 186 282 179 380 245 380 256 0 15 4 12 -364 206
-325 170 -344 181 -836 440 -350 184 -431 223 -500 242 -46 13 -108 13 -147 1z"/>
</g>
</svg>
